<?xml version="1.0" encoding="UTF-8"?>
<svg xmlns="http://www.w3.org/2000/svg" width="53.86mm" height="60.86mm" viewBox="96.32 79.32 53.86 60.86">
  <path d="M 104.070 96.550 L 104.070 90.450 L 104.075 90.395 L 104.091 90.343 L 104.117 90.294 L 104.152 90.252 L 104.194 90.217 L 104.243 90.191 L 104.295 90.175 L 104.350 90.170 L 110.050 90.170 L 110.105 90.175 L 110.157 90.191 L 110.206 90.217 L 110.248 90.252 L 110.283 90.294 L 110.309 90.343 L 110.325 90.395 L 110.330 90.450 L 110.330 96.550 L 110.325 96.605 L 110.309 96.657 L 110.283 96.706 L 110.248 96.748 L 110.206 96.783 L 110.157 96.809 L 110.105 96.825 L 110.050 96.830 L 104.350 96.830 L 104.295 96.825 L 104.243 96.809 L 104.194 96.783 L 104.152 96.748 L 104.117 96.706 L 104.091 96.657 L 104.075 96.605 L 104.070 96.550 L 104.150 96.550 L 104.150 90.450 L 104.154 90.411 L 104.165 90.373 L 104.184 90.339 L 104.209 90.309 L 104.239 90.284 L 104.273 90.265 L 104.311 90.254 L 104.350 90.250 L 110.050 90.250 L 110.089 90.254 L 110.127 90.265 L 110.161 90.284 L 110.191 90.309 L 110.216 90.339 L 110.235 90.373 L 110.246 90.411 L 110.250 90.450 L 110.250 96.550 L 110.246 96.589 L 110.235 96.627 L 110.216 96.661 L 110.191 96.691 L 110.161 96.716 L 110.127 96.735 L 110.089 96.746 L 110.050 96.750 L 104.350 96.750 L 104.311 96.746 L 104.273 96.735 L 104.239 96.716 L 104.209 96.691 L 104.184 96.661 L 104.165 96.627 L 104.154 96.589 L 104.150 96.550 L 104.230 96.550 L 104.239 96.596 L 104.265 96.635 L 104.304 96.661 L 104.350 96.670 L 110.050 96.670 L 110.096 96.661 L 110.135 96.635 L 110.161 96.596 L 110.170 96.550 L 110.170 90.450 L 110.161 90.404 L 110.135 90.365 L 110.096 90.339 L 110.050 90.330 L 104.350 90.330 L 104.304 90.339 L 104.265 90.365 L 104.239 90.404 L 104.230 90.450 L 104.230 96.550" fill="none" stroke="#000000" stroke-width="0.2"/>
  <path d="M 123.220 114.960 L 123.248 115.226 L 123.320 115.453 L 123.344 115.507 L 123.464 115.712 L 123.644 115.911 L 123.835 116.053 L 123.886 116.082 L 124.077 116.167 L 124.157 116.190 L 124.806 116.190 L 125.063 116.281 L 125.128 116.298 L 125.160 116.300 L 131.921 116.300 L 131.927 116.290 L 131.921 116.300 L 131.964 116.372 L 132.123 116.550 L 132.166 116.590 L 132.360 116.728 L 132.604 116.837 L 132.837 116.888 L 132.895 116.894 L 133.134 116.893 L 133.367 116.845 L 133.423 116.827 L 133.640 116.728 L 133.834 116.590 L 133.877 116.550 L 134.036 116.372 L 134.079 116.300 L 134.073 116.290 L 134.079 116.300 L 137.380 116.300 L 137.513 116.287 L 137.640 116.248 L 137.734 116.199 L 137.780 116.169 L 137.861 116.101 L 138.282 115.680 L 138.279 115.674 L 138.282 115.680 L 139.921 115.680 L 139.927 115.670 L 139.921 115.680 L 139.964 115.752 L 140.144 115.951 L 140.335 116.093 L 140.386 116.122 L 140.604 116.217 L 140.837 116.268 L 140.895 116.274 L 141.105 116.274 L 141.163 116.268 L 141.396 116.217 L 141.640 116.108 L 141.856 115.951 L 142.017 115.775 L 142.051 115.728 L 142.156 115.547 L 142.180 115.493 L 142.252 115.266 L 142.280 115.000 L 142.252 114.734 L 142.169 114.479 L 142.036 114.248 L 141.877 114.069 L 141.834 114.030 L 141.640 113.891 L 141.423 113.793 L 141.367 113.775 L 141.294 113.759 L 141.103 113.743 L 140.896 113.743 L 140.706 113.759 L 140.604 113.783 L 140.386 113.878 L 140.335 113.907 L 140.144 114.049 L 139.964 114.248 L 139.921 114.320 L 139.927 114.330 L 139.921 114.320 L 138.000 114.320 L 137.894 114.329 L 137.841 114.340 L 137.740 114.372 L 137.646 114.421 L 137.600 114.451 L 137.519 114.519 L 137.098 114.940 L 137.101 114.946 L 137.098 114.940 L 134.079 114.940 L 134.073 114.950 L 134.079 114.940 L 134.036 114.868 L 133.877 114.690 L 133.834 114.650 L 133.640 114.512 L 133.423 114.413 L 133.367 114.395 L 133.134 114.347 L 132.895 114.345 L 132.837 114.352 L 132.604 114.403 L 132.360 114.512 L 132.166 114.650 L 132.123 114.690 L 131.964 114.868 L 131.921 114.940 L 131.927 114.950 L 131.921 114.940 L 125.779 114.940 L 125.761 114.960 L 125.779 114.940 L 125.778 114.931 L 125.757 114.723 L 125.744 114.666 L 125.669 114.439 L 125.536 114.208 L 125.356 114.009 L 125.165 113.867 L 125.114 113.838 L 124.923 113.753 L 124.843 113.730 L 124.157 113.730 L 124.077 113.753 L 123.860 113.852 L 123.644 114.009 L 123.464 114.208 L 123.331 114.439 L 123.248 114.694 L 123.220 114.960 L 123.300 114.960 L 123.323 115.189 L 123.332 115.230 L 123.404 115.448 L 123.518 115.648 L 123.542 115.682 L 123.697 115.852 L 123.882 115.988 L 123.919 116.009 L 124.110 116.094 L 124.149 116.107 L 124.354 116.150 L 124.395 116.154 L 124.625 116.153 L 124.819 116.113 L 124.820 116.108 L 124.819 116.113 L 124.843 116.129 L 124.913 116.166 L 124.949 116.181 L 125.024 116.204 L 125.062 116.211 L 125.160 116.220 L 131.968 116.220 L 131.974 116.209 L 131.968 116.220 L 132.029 116.325 L 132.182 116.497 L 132.213 116.525 L 132.382 116.648 L 132.419 116.669 L 132.629 116.761 L 132.854 116.810 L 132.895 116.814 L 133.125 116.813 L 133.351 116.767 L 133.390 116.754 L 133.600 116.659 L 133.787 116.525 L 133.818 116.497 L 133.971 116.325 L 134.032 116.220 L 134.026 116.209 L 134.032 116.220 L 137.380 116.220 L 137.497 116.208 L 137.610 116.174 L 137.696 116.129 L 137.729 116.107 L 137.804 116.044 L 138.248 115.600 L 138.246 115.594 L 138.248 115.600 L 139.968 115.600 L 139.974 115.589 L 139.968 115.600 L 140.029 115.705 L 140.197 115.892 L 140.400 116.039 L 140.610 116.134 L 140.649 116.147 L 140.854 116.190 L 140.895 116.194 L 141.125 116.193 L 141.351 116.147 L 141.390 116.134 L 141.581 116.049 L 141.618 116.028 L 141.803 115.892 L 141.958 115.722 L 141.982 115.688 L 142.096 115.488 L 142.174 115.249 L 142.200 115.000 L 142.174 114.750 L 142.096 114.512 L 141.982 114.312 L 141.958 114.278 L 141.818 114.123 L 141.787 114.095 L 141.600 113.961 L 141.371 113.859 L 141.125 113.807 L 140.895 113.805 L 140.854 113.810 L 140.629 113.859 L 140.419 113.951 L 140.382 113.972 L 140.213 114.095 L 140.182 114.123 L 140.029 114.295 L 139.968 114.400 L 139.974 114.411 L 139.968 114.400 L 138.000 114.400 L 137.883 114.412 L 137.789 114.439 L 137.753 114.454 L 137.683 114.491 L 137.651 114.513 L 137.590 114.563 L 137.131 115.020 L 137.134 115.026 L 137.131 115.020 L 134.032 115.020 L 134.026 115.031 L 134.032 115.020 L 133.971 114.915 L 133.818 114.743 L 133.787 114.715 L 133.600 114.581 L 133.390 114.486 L 133.351 114.473 L 133.125 114.427 L 132.895 114.425 L 132.854 114.430 L 132.629 114.479 L 132.419 114.571 L 132.382 114.592 L 132.213 114.715 L 132.182 114.743 L 132.029 114.915 L 131.968 115.020 L 131.974 115.031 L 131.968 115.020 L 125.695 115.020 L 125.669 115.045 L 125.695 115.020 L 125.700 114.960 L 125.674 114.710 L 125.596 114.472 L 125.482 114.272 L 125.458 114.238 L 125.303 114.068 L 125.100 113.921 L 124.871 113.819 L 124.646 113.770 L 124.605 113.765 L 124.375 113.767 L 124.129 113.819 L 123.900 113.921 L 123.713 114.055 L 123.682 114.083 L 123.542 114.238 L 123.518 114.272 L 123.404 114.472 L 123.326 114.710 L 123.300 114.960 L 123.380 114.960 L 123.408 115.205 L 123.477 115.416 L 123.594 115.618 L 123.751 115.792 L 123.940 115.930 L 124.154 116.025 L 124.371 116.072 L 124.617 116.074 L 124.840 116.027 L 124.881 116.058 L 124.972 116.104 L 125.070 116.132 L 125.160 116.140 L 132.014 116.140 L 132.094 116.278 L 132.242 116.443 L 132.440 116.590 L 132.666 116.688 L 132.883 116.734 L 133.105 116.735 L 133.346 116.685 L 133.571 116.583 L 133.758 116.443 L 133.906 116.278 L 133.986 116.140 L 137.380 116.140 L 137.481 116.130 L 137.590 116.095 L 137.678 116.045 L 137.739 115.996 L 138.215 115.520 L 140.014 115.520 L 140.094 115.658 L 140.251 115.832 L 140.440 115.970 L 140.642 116.061 L 140.871 116.112 L 140.895 116.115 L 141.117 116.114 L 141.334 116.068 L 141.358 116.061 L 141.571 115.963 L 141.749 115.832 L 141.913 115.648 L 142.023 115.456 L 142.096 115.233 L 142.120 115.000 L 142.096 114.767 L 142.023 114.544 L 141.913 114.352 L 141.898 114.332 L 141.740 114.160 L 141.560 114.030 L 141.346 113.935 L 141.117 113.886 L 140.895 113.885 L 140.654 113.935 L 140.429 114.037 L 140.242 114.177 L 140.094 114.342 L 140.014 114.480 L 138.000 114.480 L 137.899 114.490 L 137.812 114.516 L 137.721 114.562 L 137.641 114.624 L 137.165 115.100 L 133.986 115.100 L 133.906 114.962 L 133.758 114.797 L 133.571 114.657 L 133.346 114.555 L 133.105 114.505 L 132.883 114.506 L 132.666 114.552 L 132.440 114.650 L 132.242 114.797 L 132.094 114.962 L 132.014 115.100 L 125.606 115.100 L 125.620 114.960 L 125.597 114.740 L 125.528 114.516 L 125.406 114.302 L 125.258 114.137 L 125.060 113.990 L 124.846 113.895 L 124.617 113.846 L 124.395 113.845 L 124.154 113.895 L 123.951 113.984 L 123.929 113.997 L 123.742 114.137 L 123.594 114.302 L 123.477 114.504 L 123.404 114.727 L 123.380 114.960" fill="none" stroke="#000000" stroke-width="0.2"/>
  <path d="M 120.880 127.500 L 120.904 127.267 L 120.972 127.056 L 120.983 127.033 L 121.102 126.832 L 121.251 126.668 L 121.440 126.530 L 121.654 126.435 L 121.871 126.388 L 121.895 126.385 L 122.129 126.388 L 122.346 126.435 L 122.560 126.530 L 122.758 126.677 L 122.906 126.842 L 122.986 126.980 L 123.980 126.980 L 123.980 121.028 L 123.929 121.003 L 123.751 120.872 L 123.587 120.688 L 123.477 120.496 L 123.408 120.285 L 123.381 120.053 L 123.381 120.027 L 123.404 119.807 L 123.477 119.584 L 123.594 119.382 L 123.751 119.208 L 123.940 119.070 L 124.154 118.975 L 124.383 118.926 L 124.605 118.925 L 124.846 118.975 L 125.049 119.064 L 125.240 119.200 L 125.258 119.217 L 125.406 119.382 L 125.523 119.584 L 125.596 119.807 L 125.620 120.040 L 125.592 120.285 L 125.523 120.496 L 125.413 120.688 L 125.249 120.872 L 125.071 121.003 L 125.020 121.028 L 125.020 127.500 L 125.010 127.601 L 124.980 127.699 L 124.925 127.798 L 124.868 127.868 L 124.798 127.925 L 124.699 127.980 L 124.601 128.010 L 124.500 128.020 L 122.986 128.020 L 122.906 128.158 L 122.758 128.323 L 122.560 128.470 L 122.334 128.568 L 122.117 128.614 L 121.895 128.614 L 121.871 128.612 L 121.642 128.561 L 121.440 128.470 L 121.242 128.323 L 121.094 128.158 L 120.977 127.956 L 120.904 127.733 L 120.880 127.500 L 120.800 127.500 L 120.826 127.250 L 120.896 127.031 L 120.913 126.993 L 121.018 126.812 L 121.042 126.778 L 121.197 126.608 L 121.400 126.461 L 121.629 126.359 L 121.854 126.310 L 121.895 126.305 L 122.105 126.305 L 122.146 126.310 L 122.371 126.359 L 122.600 126.461 L 122.787 126.595 L 122.818 126.623 L 122.971 126.795 L 123.032 126.900 L 123.026 126.911 L 123.032 126.900 L 123.900 126.900 L 123.923 126.923 L 123.900 126.900 L 123.900 121.079 L 123.909 121.075 L 123.900 121.079 L 123.882 121.068 L 123.713 120.945 L 123.682 120.917 L 123.529 120.745 L 123.413 120.547 L 123.396 120.509 L 123.326 120.289 L 123.301 120.061 L 123.301 120.019 L 123.326 119.790 L 123.404 119.552 L 123.529 119.335 L 123.697 119.148 L 123.900 119.001 L 124.129 118.899 L 124.375 118.847 L 124.625 118.847 L 124.871 118.899 L 125.100 119.001 L 125.303 119.148 L 125.458 119.318 L 125.482 119.352 L 125.587 119.533 L 125.604 119.571 L 125.674 119.790 L 125.700 120.040 L 125.677 120.269 L 125.668 120.310 L 125.596 120.528 L 125.482 120.728 L 125.458 120.762 L 125.303 120.932 L 125.118 121.068 L 125.100 121.079 L 125.091 121.075 L 125.100 121.079 L 125.100 127.500 L 125.088 127.617 L 125.061 127.711 L 125.046 127.747 L 125.009 127.816 L 124.987 127.849 L 124.924 127.924 L 124.849 127.987 L 124.816 128.009 L 124.730 128.054 L 124.617 128.088 L 124.500 128.100 L 123.032 128.100 L 123.026 128.089 L 123.032 128.100 L 122.971 128.205 L 122.818 128.377 L 122.787 128.405 L 122.600 128.539 L 122.390 128.634 L 122.351 128.647 L 122.125 128.693 L 121.875 128.693 L 121.629 128.641 L 121.419 128.549 L 121.382 128.528 L 121.213 128.405 L 121.182 128.377 L 121.029 128.205 L 120.904 127.988 L 120.826 127.749 L 120.800 127.500 L 120.720 127.500 L 120.748 127.234 L 120.820 127.007 L 120.844 126.953 L 120.948 126.772 L 120.983 126.725 L 121.144 126.549 L 121.360 126.391 L 121.604 126.283 L 121.837 126.232 L 121.895 126.225 L 122.105 126.225 L 122.163 126.232 L 122.396 126.283 L 122.614 126.378 L 122.665 126.407 L 122.856 126.549 L 123.036 126.748 L 123.079 126.820 L 123.073 126.830 L 123.079 126.820 L 123.820 126.820 L 123.843 126.843 L 123.820 126.820 L 123.820 121.121 L 123.829 121.117 L 123.820 121.121 L 123.644 120.991 L 123.483 120.815 L 123.449 120.768 L 123.331 120.561 L 123.248 120.306 L 123.222 120.069 L 123.222 120.011 L 123.248 119.774 L 123.331 119.519 L 123.464 119.288 L 123.644 119.089 L 123.835 118.947 L 123.886 118.918 L 124.077 118.833 L 124.157 118.810 L 124.843 118.810 L 124.923 118.833 L 125.114 118.918 L 125.165 118.947 L 125.356 119.089 L 125.517 119.265 L 125.551 119.312 L 125.669 119.519 L 125.744 119.746 L 125.757 119.803 L 125.780 120.040 L 125.752 120.306 L 125.680 120.533 L 125.656 120.587 L 125.536 120.792 L 125.377 120.970 L 125.334 121.010 L 125.180 121.121 L 125.171 121.117 L 125.180 121.121 L 125.180 127.500 L 125.167 127.633 L 125.137 127.734 L 125.116 127.785 L 125.079 127.854 L 125.049 127.900 L 124.981 127.981 L 124.900 128.049 L 124.854 128.079 L 124.785 128.116 L 124.734 128.137 L 124.633 128.167 L 124.500 128.180 L 123.079 128.180 L 123.073 128.170 L 123.079 128.180 L 123.036 128.252 L 122.856 128.451 L 122.665 128.593 L 122.614 128.622 L 122.396 128.717 L 122.163 128.768 L 122.105 128.774 L 121.866 128.773 L 121.604 128.717 L 121.386 128.622 L 121.335 128.593 L 121.166 128.470 L 121.123 128.430 L 120.964 128.252 L 120.831 128.021 L 120.748 127.766 L 120.720 127.500" fill="none" stroke="#000000" stroke-width="0.2"/>
  <path d="M 115.760 120.040 L 115.784 119.807 L 115.852 119.596 L 115.863 119.573 L 115.982 119.372 L 116.131 119.208 L 116.320 119.070 L 116.534 118.975 L 116.763 118.926 L 116.997 118.926 L 117.214 118.972 L 117.440 119.070 L 117.638 119.217 L 117.786 119.382 L 117.866 119.520 L 119.306 119.520 L 119.374 119.495 L 119.458 119.482 L 119.573 119.486 L 119.644 119.501 L 119.732 119.535 L 119.829 119.598 L 119.882 119.647 L 119.939 119.722 L 119.982 119.806 L 120.009 119.896 L 120.020 120.000 L 120.020 130.980 L 126.785 130.980 L 126.980 130.785 L 126.980 125.500 L 126.988 125.410 L 127.025 125.290 L 127.075 125.202 L 127.132 125.132 L 127.221 125.062 L 127.301 125.020 L 127.399 124.990 L 127.500 124.980 L 143.980 124.980 L 143.980 113.715 L 143.785 113.520 L 137.000 113.520 L 136.899 113.510 L 136.812 113.484 L 136.702 113.425 L 136.632 113.368 L 136.575 113.298 L 136.525 113.210 L 136.490 113.101 L 136.480 113.000 L 136.480 108.520 L 133.986 108.520 L 133.906 108.658 L 133.758 108.823 L 133.571 108.963 L 133.346 109.065 L 133.105 109.115 L 132.883 109.114 L 132.666 109.068 L 132.440 108.970 L 132.242 108.823 L 132.094 108.658 L 132.014 108.520 L 128.715 108.520 L 128.520 108.715 L 128.520 111.785 L 128.788 112.052 L 128.845 112.122 L 128.904 112.232 L 128.932 112.330 L 128.939 112.408 L 128.932 112.510 L 128.895 112.630 L 128.845 112.718 L 128.796 112.779 L 128.718 112.845 L 128.608 112.904 L 128.510 112.932 L 128.420 112.940 L 125.486 112.940 L 125.406 113.078 L 125.258 113.243 L 125.060 113.390 L 124.834 113.488 L 124.617 113.534 L 124.395 113.535 L 124.166 113.488 L 124.142 113.481 L 123.940 113.390 L 123.751 113.252 L 123.594 113.078 L 123.483 112.887 L 123.404 112.653 L 123.380 112.420 L 123.404 112.187 L 123.477 111.964 L 123.594 111.762 L 123.751 111.588 L 123.940 111.450 L 124.154 111.355 L 124.371 111.308 L 124.395 111.305 L 124.629 111.308 L 124.846 111.355 L 125.060 111.450 L 125.258 111.597 L 125.406 111.762 L 125.486 111.900 L 127.482 111.900 L 127.480 108.500 L 127.490 108.399 L 127.525 108.290 L 127.575 108.202 L 127.624 108.141 L 128.132 107.632 L 128.221 107.562 L 128.301 107.520 L 128.387 107.493 L 128.500 107.480 L 132.014 107.480 L 132.094 107.342 L 132.242 107.177 L 132.429 107.037 L 132.480 107.012 L 132.480 96.670 L 130.150 96.670 L 130.104 96.661 L 130.083 96.650 L 130.050 96.617 L 130.039 96.596 L 130.030 96.550 L 130.032 90.427 L 130.039 90.404 L 130.065 90.365 L 130.104 90.339 L 130.150 90.330 L 135.873 90.332 L 135.917 90.350 L 135.950 90.383 L 135.968 90.427 L 135.970 90.450 L 135.970 96.550 L 135.961 96.596 L 135.950 96.617 L 135.917 96.650 L 135.896 96.661 L 135.850 96.670 L 133.520 96.670 L 133.520 107.011 L 133.571 107.037 L 133.758 107.177 L 133.906 107.342 L 133.986 107.480 L 137.012 107.481 L 137.101 107.490 L 137.188 107.516 L 137.279 107.562 L 137.368 107.632 L 137.425 107.702 L 137.484 107.812 L 137.510 107.899 L 137.520 108.000 L 137.520 112.480 L 144.000 112.480 L 144.090 112.488 L 144.210 112.525 L 144.298 112.575 L 144.359 112.624 L 144.868 113.132 L 144.938 113.221 L 144.980 113.301 L 145.007 113.387 L 145.020 113.500 L 145.020 125.500 L 145.010 125.601 L 144.984 125.688 L 144.925 125.798 L 144.868 125.868 L 144.798 125.925 L 144.710 125.975 L 144.601 126.010 L 144.500 126.020 L 128.020 126.020 L 128.020 131.000 L 128.012 131.090 L 127.975 131.210 L 127.925 131.298 L 127.876 131.359 L 127.368 131.868 L 127.298 131.925 L 127.188 131.984 L 127.101 132.010 L 127.000 132.020 L 119.500 132.020 L 119.399 132.010 L 119.301 131.980 L 119.221 131.938 L 119.132 131.868 L 119.075 131.798 L 119.016 131.688 L 118.990 131.601 L 118.980 131.500 L 118.980 120.560 L 117.866 120.560 L 117.786 120.698 L 117.638 120.863 L 117.440 121.010 L 117.214 121.108 L 116.997 121.154 L 116.763 121.154 L 116.534 121.105 L 116.331 121.016 L 116.309 121.003 L 116.122 120.863 L 115.974 120.698 L 115.857 120.496 L 115.784 120.273 L 115.760 120.040 L 115.680 120.040 L 115.706 119.790 L 115.776 119.571 L 115.793 119.533 L 115.898 119.352 L 115.922 119.318 L 116.077 119.148 L 116.280 119.001 L 116.509 118.899 L 116.755 118.847 L 117.005 118.847 L 117.231 118.893 L 117.270 118.906 L 117.480 119.001 L 117.667 119.135 L 117.698 119.163 L 117.851 119.335 L 117.912 119.440 L 117.906 119.451 L 117.912 119.440 L 119.292 119.441 L 119.354 119.418 L 119.446 119.403 L 119.554 119.403 L 119.590 119.407 L 119.696 119.433 L 119.762 119.461 L 119.855 119.517 L 119.884 119.539 L 119.960 119.616 L 120.003 119.675 L 120.054 119.771 L 120.086 119.874 L 120.093 119.910 L 120.100 120.000 L 120.100 130.900 L 120.077 130.923 L 120.100 130.900 L 126.751 130.900 L 126.754 130.906 L 126.751 130.900 L 126.900 130.751 L 126.906 130.754 L 126.900 130.751 L 126.900 125.500 L 126.909 125.402 L 126.916 125.364 L 126.939 125.289 L 126.954 125.253 L 126.991 125.183 L 127.013 125.151 L 127.076 125.076 L 127.151 125.013 L 127.183 124.991 L 127.270 124.946 L 127.364 124.916 L 127.402 124.909 L 127.500 124.900 L 143.900 124.900 L 143.923 124.923 L 143.900 124.900 L 143.900 113.748 L 143.906 113.746 L 143.900 113.748 L 143.751 113.600 L 143.754 113.594 L 143.751 113.600 L 137.000 113.600 L 136.883 113.588 L 136.789 113.561 L 136.753 113.546 L 136.683 113.509 L 136.651 113.487 L 136.576 113.424 L 136.513 113.349 L 136.491 113.316 L 136.454 113.247 L 136.439 113.211 L 136.412 113.117 L 136.400 113.000 L 136.400 108.600 L 136.423 108.577 L 136.400 108.600 L 134.032 108.600 L 134.026 108.589 L 134.032 108.600 L 133.971 108.705 L 133.818 108.877 L 133.787 108.905 L 133.618 109.028 L 133.581 109.049 L 133.371 109.141 L 133.146 109.190 L 133.105 109.195 L 132.875 109.193 L 132.649 109.147 L 132.610 109.134 L 132.400 109.039 L 132.213 108.905 L 132.182 108.877 L 132.029 108.705 L 131.968 108.600 L 131.974 108.589 L 131.968 108.600 L 128.749 108.600 L 128.746 108.594 L 128.749 108.600 L 128.600 108.749 L 128.594 108.746 L 128.600 108.749 L 128.600 111.751 L 128.594 111.754 L 128.600 111.751 L 128.844 111.996 L 128.907 112.071 L 128.929 112.103 L 128.966 112.173 L 128.981 112.209 L 129.004 112.284 L 129.011 112.322 L 129.019 112.400 L 129.019 112.440 L 129.011 112.518 L 129.004 112.556 L 128.981 112.631 L 128.966 112.667 L 128.929 112.736 L 128.907 112.769 L 128.857 112.830 L 128.830 112.857 L 128.769 112.907 L 128.736 112.929 L 128.667 112.966 L 128.631 112.981 L 128.556 113.004 L 128.518 113.011 L 128.420 113.020 L 125.532 113.020 L 125.526 113.009 L 125.532 113.020 L 125.471 113.125 L 125.318 113.297 L 125.287 113.325 L 125.100 113.459 L 124.890 113.554 L 124.851 113.567 L 124.625 113.613 L 124.395 113.615 L 124.354 113.610 L 124.149 113.567 L 124.110 113.554 L 123.900 113.459 L 123.697 113.312 L 123.529 113.125 L 123.413 112.927 L 123.396 112.889 L 123.326 112.669 L 123.300 112.420 L 123.326 112.170 L 123.404 111.932 L 123.529 111.715 L 123.697 111.528 L 123.900 111.381 L 124.129 111.279 L 124.354 111.230 L 124.395 111.225 L 124.605 111.225 L 124.646 111.230 L 124.871 111.279 L 125.100 111.381 L 125.287 111.515 L 125.318 111.543 L 125.471 111.715 L 125.532 111.820 L 125.526 111.831 L 125.532 111.820 L 127.402 111.820 L 127.425 111.843 L 127.402 111.820 L 127.400 108.500 L 127.412 108.383 L 127.439 108.289 L 127.454 108.253 L 127.491 108.183 L 127.513 108.151 L 127.563 108.090 L 128.076 107.576 L 128.151 107.513 L 128.183 107.491 L 128.270 107.446 L 128.364 107.416 L 128.402 107.409 L 128.500 107.400 L 131.968 107.400 L 131.974 107.411 L 131.968 107.400 L 132.029 107.295 L 132.182 107.123 L 132.213 107.095 L 132.382 106.972 L 132.400 106.961 L 132.409 106.965 L 132.400 106.961 L 132.400 96.750 L 132.423 96.727 L 132.400 96.750 L 130.150 96.750 L 130.111 96.746 L 130.073 96.735 L 130.039 96.716 L 130.009 96.691 L 129.984 96.661 L 129.965 96.627 L 129.954 96.589 L 129.950 96.550 L 129.950 90.450 L 129.954 90.411 L 129.965 90.373 L 129.984 90.339 L 130.009 90.309 L 130.039 90.284 L 130.073 90.265 L 130.111 90.254 L 130.150 90.250 L 135.850 90.250 L 135.889 90.254 L 135.927 90.265 L 135.961 90.284 L 135.991 90.309 L 136.016 90.339 L 136.035 90.373 L 136.046 90.411 L 136.050 90.450 L 136.050 96.550 L 136.046 96.589 L 136.035 96.627 L 136.016 96.661 L 135.991 96.691 L 135.961 96.716 L 135.927 96.735 L 135.889 96.746 L 135.850 96.750 L 133.600 96.750 L 133.577 96.727 L 133.600 96.750 L 133.600 106.961 L 133.591 106.965 L 133.600 106.961 L 133.618 106.972 L 133.787 107.095 L 133.818 107.123 L 133.971 107.295 L 134.032 107.400 L 134.026 107.411 L 134.032 107.400 L 137.020 107.401 L 137.117 107.412 L 137.211 107.439 L 137.247 107.454 L 137.316 107.491 L 137.349 107.513 L 137.424 107.576 L 137.487 107.651 L 137.509 107.683 L 137.546 107.753 L 137.561 107.789 L 137.588 107.883 L 137.600 108.000 L 137.600 112.400 L 137.577 112.423 L 137.600 112.400 L 144.000 112.400 L 144.098 112.409 L 144.136 112.416 L 144.211 112.439 L 144.247 112.454 L 144.316 112.491 L 144.349 112.513 L 144.410 112.563 L 144.924 113.076 L 144.987 113.151 L 145.009 113.183 L 145.054 113.270 L 145.084 113.364 L 145.091 113.402 L 145.100 113.500 L 145.100 125.500 L 145.088 125.617 L 145.061 125.711 L 145.046 125.747 L 145.009 125.816 L 144.987 125.849 L 144.924 125.924 L 144.849 125.987 L 144.816 126.009 L 144.747 126.046 L 144.711 126.061 L 144.617 126.088 L 144.500 126.100 L 128.100 126.100 L 128.077 126.077 L 128.100 126.100 L 128.100 131.000 L 128.091 131.098 L 128.084 131.136 L 128.061 131.211 L 128.046 131.247 L 128.009 131.316 L 127.987 131.349 L 127.937 131.410 L 127.424 131.924 L 127.349 131.987 L 127.316 132.009 L 127.247 132.046 L 127.211 132.061 L 127.117 132.088 L 127.000 132.100 L 119.500 132.100 L 119.383 132.088 L 119.270 132.054 L 119.183 132.009 L 119.151 131.987 L 119.076 131.924 L 119.013 131.849 L 118.991 131.816 L 118.954 131.747 L 118.939 131.711 L 118.912 131.617 L 118.900 131.500 L 118.900 120.640 L 118.923 120.617 L 118.900 120.640 L 117.912 120.640 L 117.906 120.629 L 117.912 120.640 L 117.851 120.745 L 117.698 120.917 L 117.667 120.945 L 117.480 121.079 L 117.251 121.181 L 117.026 121.230 L 116.985 121.234 L 116.775 121.234 L 116.734 121.230 L 116.509 121.181 L 116.299 121.089 L 116.262 121.068 L 116.093 120.945 L 116.062 120.917 L 115.909 120.745 L 115.784 120.528 L 115.706 120.289 L 115.680 120.040 L 115.600 120.040 L 115.628 119.774 L 115.700 119.547 L 115.724 119.493 L 115.844 119.288 L 116.024 119.089 L 116.215 118.947 L 116.266 118.918 L 116.457 118.833 L 116.537 118.810 L 117.223 118.810 L 117.303 118.833 L 117.520 118.932 L 117.736 119.089 L 117.916 119.288 L 117.959 119.360 L 117.953 119.370 L 117.959 119.360 L 119.277 119.360 L 119.334 119.341 L 119.362 119.335 L 119.434 119.324 L 119.484 119.321 L 119.557 119.323 L 119.607 119.329 L 119.678 119.344 L 119.726 119.359 L 119.793 119.387 L 119.838 119.411 L 119.899 119.450 L 119.939 119.481 L 119.991 119.531 L 120.025 119.569 L 120.068 119.627 L 120.094 119.670 L 120.126 119.736 L 120.144 119.783 L 120.163 119.853 L 120.172 119.903 L 120.180 120.000 L 120.180 130.820 L 120.157 130.843 L 120.180 130.820 L 126.718 130.820 L 126.721 130.826 L 126.718 130.820 L 126.820 130.718 L 126.826 130.721 L 126.820 130.718 L 126.820 125.500 L 126.829 125.394 L 126.840 125.341 L 126.863 125.266 L 126.884 125.215 L 126.921 125.146 L 126.951 125.100 L 127.019 125.019 L 127.100 124.951 L 127.146 124.920 L 127.240 124.872 L 127.341 124.840 L 127.395 124.829 L 127.500 124.820 L 143.820 124.820 L 143.843 124.843 L 143.820 124.820 L 143.820 113.782 L 143.826 113.779 L 143.820 113.782 L 143.718 113.680 L 143.721 113.674 L 143.718 113.680 L 141.302 113.680 L 141.107 113.663 L 140.895 113.663 L 140.698 113.680 L 137.000 113.680 L 136.867 113.667 L 136.766 113.637 L 136.715 113.616 L 136.646 113.579 L 136.600 113.549 L 136.540 113.499 L 136.501 113.460 L 136.451 113.400 L 136.420 113.354 L 136.383 113.285 L 136.362 113.234 L 136.333 113.133 L 136.321 113.027 L 136.320 108.680 L 136.343 108.657 L 136.320 108.680 L 134.079 108.680 L 134.073 108.670 L 134.079 108.680 L 134.036 108.752 L 133.877 108.930 L 133.834 108.970 L 133.640 109.108 L 133.396 109.217 L 133.163 109.268 L 133.105 109.274 L 132.866 109.273 L 132.633 109.225 L 132.577 109.207 L 132.360 109.108 L 132.166 108.970 L 132.123 108.930 L 131.964 108.752 L 131.921 108.680 L 131.927 108.670 L 131.921 108.680 L 128.782 108.680 L 128.779 108.674 L 128.782 108.680 L 128.680 108.782 L 128.674 108.779 L 128.680 108.782 L 128.680 111.718 L 128.674 111.721 L 128.680 111.718 L 128.901 111.939 L 128.969 112.020 L 128.999 112.066 L 129.036 112.135 L 129.057 112.186 L 129.080 112.261 L 129.091 112.315 L 129.099 112.393 L 129.099 112.447 L 129.091 112.525 L 129.080 112.579 L 129.057 112.654 L 129.036 112.705 L 128.999 112.774 L 128.969 112.820 L 128.919 112.880 L 128.880 112.919 L 128.820 112.969 L 128.774 112.999 L 128.705 113.036 L 128.654 113.057 L 128.579 113.080 L 128.525 113.091 L 128.420 113.100 L 125.579 113.100 L 125.573 113.090 L 125.579 113.100 L 125.536 113.172 L 125.356 113.371 L 125.140 113.528 L 124.923 113.627 L 124.843 113.650 L 124.157 113.650 L 124.077 113.627 L 123.860 113.528 L 123.666 113.390 L 123.623 113.350 L 123.464 113.172 L 123.344 112.967 L 123.320 112.913 L 123.248 112.686 L 123.220 112.420 L 123.248 112.154 L 123.331 111.899 L 123.449 111.692 L 123.483 111.645 L 123.644 111.469 L 123.835 111.327 L 123.886 111.298 L 124.077 111.213 L 124.133 111.195 L 124.366 111.147 L 124.605 111.145 L 124.663 111.152 L 124.867 111.195 L 124.923 111.213 L 125.140 111.312 L 125.356 111.469 L 125.536 111.668 L 125.579 111.740 L 125.573 111.750 L 125.579 111.740 L 127.322 111.740 L 127.345 111.763 L 127.322 111.740 L 127.320 108.500 L 127.333 108.367 L 127.363 108.266 L 127.384 108.215 L 127.421 108.146 L 127.451 108.100 L 127.501 108.040 L 128.019 107.519 L 128.100 107.451 L 128.146 107.420 L 128.240 107.372 L 128.341 107.340 L 128.395 107.329 L 128.500 107.320 L 131.921 107.320 L 131.927 107.330 L 131.921 107.320 L 131.964 107.248 L 132.123 107.070 L 132.166 107.030 L 132.320 106.919 L 132.328 106.923 L 132.320 106.919 L 132.320 96.830 L 132.343 96.807 L 132.320 96.830 L 130.150 96.830 L 130.095 96.825 L 130.043 96.809 L 129.994 96.783 L 129.952 96.748 L 129.917 96.706 L 129.891 96.657 L 129.875 96.605 L 129.870 96.550 L 129.870 90.450 L 129.875 90.395 L 129.891 90.343 L 129.917 90.294 L 129.952 90.252 L 129.994 90.217 L 130.043 90.191 L 130.095 90.175 L 130.150 90.170 L 135.850 90.170 L 135.905 90.175 L 135.957 90.191 L 136.006 90.217 L 136.048 90.252 L 136.083 90.294 L 136.109 90.343 L 136.125 90.395 L 136.130 90.450 L 136.130 96.550 L 136.125 96.605 L 136.109 96.657 L 136.083 96.706 L 136.048 96.748 L 136.006 96.783 L 135.957 96.809 L 135.905 96.825 L 135.850 96.830 L 133.680 96.830 L 133.657 96.807 L 133.680 96.830 L 133.680 106.919 L 133.672 106.923 L 133.680 106.919 L 133.834 107.030 L 133.877 107.070 L 134.036 107.248 L 134.079 107.320 L 134.073 107.330 L 134.079 107.320 L 137.027 107.321 L 137.133 107.333 L 137.234 107.362 L 137.285 107.383 L 137.354 107.420 L 137.400 107.451 L 137.460 107.501 L 137.499 107.540 L 137.549 107.600 L 137.579 107.646 L 137.616 107.715 L 137.637 107.766 L 137.667 107.867 L 137.680 108.000 L 137.680 112.320 L 137.657 112.343 L 137.680 112.320 L 144.000 112.320 L 144.105 112.329 L 144.159 112.340 L 144.234 112.362 L 144.285 112.383 L 144.354 112.420 L 144.400 112.451 L 144.460 112.501 L 144.981 113.019 L 145.049 113.100 L 145.079 113.146 L 145.128 113.240 L 145.160 113.341 L 145.171 113.394 L 145.180 113.500 L 145.180 125.500 L 145.167 125.633 L 145.137 125.734 L 145.116 125.785 L 145.079 125.854 L 145.049 125.900 L 144.999 125.960 L 144.960 125.999 L 144.900 126.049 L 144.854 126.079 L 144.785 126.116 L 144.734 126.137 L 144.633 126.167 L 144.500 126.180 L 128.180 126.180 L 128.157 126.157 L 128.180 126.180 L 128.180 131.000 L 128.171 131.105 L 128.160 131.159 L 128.128 131.260 L 128.079 131.354 L 128.049 131.400 L 127.981 131.481 L 127.481 131.981 L 127.400 132.049 L 127.354 132.079 L 127.285 132.116 L 127.234 132.137 L 127.133 132.167 L 127.000 132.180 L 119.500 132.180 L 119.367 132.167 L 119.240 132.128 L 119.146 132.079 L 119.100 132.049 L 119.019 131.981 L 118.951 131.900 L 118.920 131.854 L 118.884 131.785 L 118.862 131.734 L 118.833 131.633 L 118.820 131.500 L 118.820 120.720 L 118.843 120.697 L 118.820 120.720 L 117.959 120.720 L 117.953 120.710 L 117.959 120.720 L 117.916 120.792 L 117.736 120.991 L 117.545 121.133 L 117.494 121.162 L 117.276 121.257 L 117.043 121.308 L 116.985 121.314 L 116.775 121.314 L 116.717 121.308 L 116.484 121.257 L 116.240 121.148 L 116.024 120.991 L 115.863 120.815 L 115.829 120.768 L 115.724 120.587 L 115.700 120.533 L 115.628 120.306 L 115.600 120.040" fill="none" stroke="#000000" stroke-width="0.2"/>
  <path d="M 115.760 114.960 L 115.784 114.727 L 115.852 114.516 L 115.863 114.493 L 115.982 114.292 L 116.131 114.128 L 116.320 113.990 L 116.534 113.895 L 116.763 113.846 L 116.997 113.846 L 117.214 113.892 L 117.440 113.990 L 117.638 114.137 L 117.786 114.302 L 117.866 114.440 L 120.960 114.440 L 121.050 114.448 L 121.170 114.485 L 121.249 114.528 L 121.319 114.584 L 121.426 114.702 L 121.467 114.772 L 121.497 114.848 L 121.515 114.928 L 121.520 115.000 L 121.520 116.785 L 121.715 116.980 L 123.514 116.980 L 123.594 116.842 L 123.742 116.677 L 123.940 116.530 L 124.166 116.432 L 124.383 116.386 L 124.605 116.385 L 124.846 116.435 L 125.071 116.537 L 125.258 116.677 L 125.406 116.842 L 125.486 116.980 L 129.000 116.980 L 129.101 116.990 L 129.210 117.025 L 129.298 117.075 L 129.368 117.132 L 130.368 118.132 L 130.438 118.221 L 130.480 118.301 L 130.510 118.399 L 130.520 118.500 L 130.520 122.815 L 131.035 122.815 L 131.097 122.752 L 131.167 122.695 L 131.255 122.645 L 131.363 122.610 L 131.453 122.601 L 131.566 122.610 L 131.675 122.645 L 131.763 122.695 L 131.833 122.752 L 131.885 122.815 L 132.764 122.815 L 132.844 122.677 L 132.992 122.511 L 133.179 122.372 L 133.404 122.270 L 133.645 122.220 L 133.867 122.221 L 134.084 122.266 L 134.310 122.365 L 134.508 122.511 L 134.656 122.677 L 134.736 122.815 L 137.070 122.815 L 137.632 122.252 L 137.721 122.182 L 137.812 122.136 L 137.899 122.110 L 138.000 122.100 L 140.014 122.100 L 140.094 121.962 L 140.242 121.797 L 140.429 121.657 L 140.654 121.555 L 140.895 121.505 L 141.117 121.506 L 141.346 121.555 L 141.560 121.650 L 141.740 121.780 L 141.898 121.952 L 141.913 121.972 L 142.023 122.164 L 142.097 122.400 L 142.120 122.620 L 142.096 122.853 L 142.023 123.076 L 141.906 123.278 L 141.749 123.452 L 141.560 123.590 L 141.346 123.685 L 141.117 123.734 L 140.871 123.732 L 140.654 123.685 L 140.440 123.590 L 140.242 123.443 L 140.094 123.278 L 140.014 123.140 L 138.215 123.140 L 137.644 123.711 L 137.564 123.773 L 137.484 123.815 L 137.398 123.842 L 137.285 123.855 L 134.736 123.855 L 134.656 123.993 L 134.508 124.158 L 134.321 124.298 L 134.096 124.400 L 133.867 124.449 L 133.633 124.449 L 133.416 124.403 L 133.190 124.305 L 132.992 124.158 L 132.844 123.993 L 132.764 123.855 L 130.380 123.855 L 130.298 123.925 L 130.188 123.984 L 130.101 124.010 L 130.012 124.019 L 129.887 124.007 L 129.801 123.980 L 129.702 123.925 L 129.632 123.868 L 129.575 123.798 L 129.516 123.688 L 129.490 123.601 L 129.481 123.512 L 129.480 118.715 L 128.785 118.020 L 125.486 118.020 L 125.406 118.158 L 125.258 118.323 L 125.060 118.470 L 124.834 118.568 L 124.617 118.614 L 124.395 118.615 L 124.154 118.565 L 123.929 118.463 L 123.742 118.323 L 123.594 118.158 L 123.514 118.020 L 121.500 118.020 L 121.387 118.007 L 121.301 117.980 L 121.221 117.938 L 121.132 117.868 L 120.632 117.368 L 120.575 117.298 L 120.520 117.199 L 120.490 117.101 L 120.480 117.000 L 120.480 115.480 L 117.866 115.480 L 117.786 115.618 L 117.629 115.792 L 117.440 115.930 L 117.238 116.021 L 117.214 116.028 L 116.985 116.075 L 116.763 116.074 L 116.534 116.025 L 116.320 115.930 L 116.140 115.800 L 115.974 115.618 L 115.857 115.416 L 115.788 115.205 L 115.760 114.960 L 115.680 114.960 L 115.706 114.710 L 115.776 114.491 L 115.793 114.453 L 115.909 114.255 L 116.077 114.068 L 116.262 113.932 L 116.299 113.911 L 116.490 113.826 L 116.529 113.813 L 116.755 113.767 L 116.985 113.765 L 117.026 113.770 L 117.251 113.819 L 117.461 113.911 L 117.498 113.932 L 117.667 114.055 L 117.698 114.083 L 117.851 114.255 L 117.912 114.360 L 117.906 114.371 L 117.912 114.360 L 120.960 114.360 L 121.058 114.369 L 121.096 114.376 L 121.171 114.399 L 121.207 114.414 L 121.276 114.451 L 121.309 114.473 L 121.390 114.542 L 121.471 114.629 L 121.494 114.660 L 121.541 114.742 L 121.575 114.830 L 121.590 114.891 L 121.600 115.000 L 121.600 116.751 L 121.594 116.754 L 121.600 116.751 L 121.749 116.900 L 121.746 116.906 L 121.749 116.900 L 123.468 116.900 L 123.474 116.911 L 123.468 116.900 L 123.529 116.795 L 123.682 116.623 L 123.713 116.595 L 123.900 116.461 L 124.110 116.366 L 124.149 116.353 L 124.375 116.307 L 124.605 116.305 L 124.646 116.310 L 124.871 116.359 L 125.081 116.451 L 125.118 116.472 L 125.287 116.595 L 125.318 116.623 L 125.471 116.795 L 125.532 116.900 L 125.526 116.911 L 125.532 116.900 L 129.000 116.900 L 129.098 116.909 L 129.136 116.916 L 129.230 116.946 L 129.316 116.991 L 129.349 117.013 L 129.424 117.076 L 130.424 118.076 L 130.487 118.151 L 130.509 118.183 L 130.554 118.270 L 130.588 118.383 L 130.600 118.500 L 130.600 122.735 L 130.577 122.758 L 130.600 122.735 L 131.001 122.735 L 131.003 122.740 L 131.001 122.735 L 131.041 122.696 L 131.116 122.633 L 131.148 122.611 L 131.218 122.574 L 131.254 122.559 L 131.348 122.532 L 131.445 122.521 L 131.484 122.521 L 131.582 122.532 L 131.695 122.566 L 131.781 122.611 L 131.814 122.633 L 131.889 122.696 L 131.923 122.735 L 131.920 122.741 L 131.923 122.735 L 132.718 122.735 L 132.724 122.746 L 132.718 122.735 L 132.779 122.630 L 132.932 122.458 L 132.963 122.430 L 133.132 122.307 L 133.169 122.286 L 133.379 122.194 L 133.604 122.145 L 133.645 122.140 L 133.875 122.142 L 134.101 122.188 L 134.140 122.201 L 134.350 122.296 L 134.537 122.430 L 134.568 122.458 L 134.721 122.630 L 134.782 122.735 L 134.776 122.746 L 134.782 122.735 L 137.037 122.735 L 137.039 122.741 L 137.037 122.735 L 137.576 122.196 L 137.651 122.133 L 137.683 122.111 L 137.753 122.074 L 137.789 122.059 L 137.883 122.032 L 138.000 122.020 L 139.968 122.020 L 139.974 122.031 L 139.968 122.020 L 140.029 121.915 L 140.182 121.743 L 140.213 121.715 L 140.382 121.592 L 140.419 121.571 L 140.629 121.479 L 140.854 121.430 L 140.895 121.425 L 141.125 121.427 L 141.371 121.479 L 141.600 121.581 L 141.787 121.715 L 141.818 121.743 L 141.971 121.915 L 142.087 122.113 L 142.104 122.151 L 142.168 122.350 L 142.177 122.391 L 142.200 122.620 L 142.174 122.869 L 142.096 123.108 L 141.971 123.325 L 141.803 123.512 L 141.600 123.659 L 141.371 123.761 L 141.125 123.813 L 140.895 123.814 L 140.854 123.810 L 140.629 123.761 L 140.400 123.659 L 140.213 123.525 L 140.182 123.497 L 140.029 123.325 L 139.968 123.220 L 139.974 123.209 L 139.968 123.220 L 138.248 123.220 L 138.246 123.214 L 138.248 123.220 L 137.695 123.772 L 137.634 123.822 L 137.602 123.844 L 137.515 123.889 L 137.421 123.919 L 137.383 123.926 L 137.285 123.935 L 134.782 123.935 L 134.776 123.924 L 134.782 123.935 L 134.721 124.040 L 134.568 124.212 L 134.537 124.240 L 134.368 124.363 L 134.331 124.384 L 134.121 124.476 L 133.875 124.528 L 133.645 124.529 L 133.604 124.525 L 133.379 124.476 L 133.150 124.374 L 132.963 124.240 L 132.932 124.212 L 132.779 124.040 L 132.718 123.935 L 132.724 123.924 L 132.718 123.935 L 130.412 123.935 L 130.411 123.931 L 130.410 123.937 L 130.349 123.987 L 130.316 124.009 L 130.230 124.054 L 130.136 124.084 L 130.098 124.091 L 130.020 124.099 L 129.980 124.099 L 129.902 124.091 L 129.864 124.084 L 129.770 124.054 L 129.683 124.009 L 129.651 123.987 L 129.576 123.924 L 129.513 123.849 L 129.491 123.816 L 129.454 123.747 L 129.439 123.711 L 129.412 123.617 L 129.401 123.520 L 129.400 118.749 L 129.406 118.746 L 129.400 118.749 L 128.751 118.100 L 128.754 118.094 L 128.751 118.100 L 125.532 118.100 L 125.526 118.089 L 125.532 118.100 L 125.471 118.205 L 125.318 118.377 L 125.287 118.405 L 125.100 118.539 L 124.890 118.634 L 124.851 118.647 L 124.625 118.693 L 124.395 118.695 L 124.354 118.690 L 124.129 118.641 L 123.919 118.549 L 123.882 118.528 L 123.713 118.405 L 123.682 118.377 L 123.529 118.205 L 123.468 118.100 L 123.474 118.089 L 123.468 118.100 L 121.500 118.100 L 121.402 118.091 L 121.364 118.084 L 121.270 118.054 L 121.183 118.009 L 121.151 117.987 L 121.076 117.924 L 120.563 117.410 L 120.513 117.349 L 120.491 117.316 L 120.446 117.230 L 120.412 117.117 L 120.400 117.000 L 120.400 115.560 L 120.423 115.537 L 120.400 115.560 L 117.912 115.560 L 117.906 115.549 L 117.912 115.560 L 117.851 115.665 L 117.683 115.852 L 117.480 115.999 L 117.270 116.094 L 117.231 116.107 L 117.026 116.150 L 116.985 116.154 L 116.755 116.153 L 116.509 116.101 L 116.299 116.009 L 116.262 115.988 L 116.077 115.852 L 115.909 115.665 L 115.793 115.467 L 115.776 115.429 L 115.706 115.209 L 115.680 114.960 L 115.600 114.960 L 115.628 114.694 L 115.700 114.467 L 115.724 114.413 L 115.844 114.208 L 116.003 114.030 L 116.046 113.990 L 116.240 113.852 L 116.401 113.778 L 116.514 113.757 L 116.721 113.736 L 116.983 113.733 L 117.246 113.757 L 117.359 113.778 L 117.520 113.852 L 117.714 113.990 L 117.757 114.030 L 117.916 114.208 L 117.959 114.280 L 117.953 114.290 L 117.959 114.280 L 120.960 114.280 L 121.093 114.293 L 121.194 114.323 L 121.245 114.344 L 121.314 114.380 L 121.360 114.411 L 121.449 114.487 L 121.530 114.575 L 121.562 114.619 L 121.615 114.711 L 121.653 114.811 L 121.667 114.872 L 121.674 114.915 L 121.680 115.000 L 121.680 116.718 L 121.674 116.721 L 121.680 116.718 L 121.782 116.820 L 121.779 116.826 L 121.782 116.820 L 123.421 116.820 L 123.427 116.830 L 123.421 116.820 L 123.464 116.748 L 123.644 116.549 L 123.860 116.392 L 124.077 116.293 L 124.157 116.270 L 124.792 116.270 L 124.982 116.339 L 125.108 116.375 L 125.165 116.407 L 125.334 116.530 L 125.377 116.570 L 125.536 116.748 L 125.579 116.820 L 125.573 116.830 L 125.579 116.820 L 129.000 116.820 L 129.105 116.829 L 129.159 116.840 L 129.260 116.872 L 129.354 116.920 L 129.400 116.951 L 129.481 117.019 L 130.481 118.019 L 130.549 118.100 L 130.579 118.146 L 130.616 118.215 L 130.637 118.266 L 130.667 118.367 L 130.680 118.500 L 130.680 122.655 L 130.657 122.678 L 130.680 122.655 L 130.968 122.655 L 130.970 122.660 L 130.968 122.655 L 130.984 122.639 L 131.065 122.571 L 131.111 122.540 L 131.205 122.492 L 131.332 122.453 L 131.437 122.441 L 131.492 122.441 L 131.598 122.453 L 131.725 122.492 L 131.819 122.540 L 131.865 122.571 L 131.946 122.639 L 131.960 122.655 L 131.958 122.660 L 131.960 122.655 L 132.671 122.655 L 132.677 122.665 L 132.671 122.655 L 132.714 122.583 L 132.873 122.404 L 132.916 122.365 L 133.110 122.226 L 133.354 122.118 L 133.587 122.067 L 133.645 122.060 L 133.884 122.062 L 134.117 122.110 L 134.173 122.128 L 134.390 122.226 L 134.584 122.365 L 134.627 122.404 L 134.786 122.583 L 134.829 122.655 L 134.823 122.665 L 134.829 122.655 L 137.003 122.655 L 137.006 122.661 L 137.003 122.655 L 137.540 122.121 L 137.600 122.071 L 137.646 122.040 L 137.715 122.004 L 137.766 121.983 L 137.867 121.953 L 138.000 121.940 L 139.921 121.940 L 139.927 121.950 L 139.921 121.940 L 139.964 121.868 L 140.123 121.689 L 140.166 121.650 L 140.360 121.511 L 140.577 121.413 L 140.633 121.395 L 140.866 121.347 L 141.105 121.346 L 141.163 121.352 L 141.396 121.403 L 141.640 121.511 L 141.856 121.669 L 142.036 121.868 L 142.169 122.099 L 142.252 122.354 L 142.280 122.620 L 142.257 122.857 L 142.244 122.914 L 142.169 123.141 L 142.051 123.348 L 142.017 123.395 L 141.856 123.571 L 141.640 123.728 L 141.423 123.827 L 141.367 123.845 L 141.134 123.893 L 140.895 123.894 L 140.837 123.888 L 140.604 123.837 L 140.386 123.742 L 140.335 123.713 L 140.144 123.571 L 139.964 123.372 L 139.921 123.300 L 139.927 123.290 L 139.921 123.300 L 138.282 123.300 L 138.279 123.294 L 138.282 123.300 L 137.745 123.834 L 137.685 123.884 L 137.639 123.914 L 137.570 123.951 L 137.519 123.972 L 137.444 123.995 L 137.391 124.006 L 137.285 124.015 L 134.829 124.015 L 134.823 124.005 L 134.829 124.015 L 134.786 124.086 L 134.627 124.265 L 134.584 124.305 L 134.390 124.443 L 134.146 124.552 L 133.884 124.608 L 133.645 124.609 L 133.587 124.603 L 133.354 124.552 L 133.136 124.457 L 133.085 124.427 L 132.894 124.286 L 132.714 124.086 L 132.671 124.015 L 132.677 124.005 L 132.671 124.015 L 130.441 124.015 L 130.440 124.012 L 130.441 124.015 L 130.400 124.049 L 130.354 124.079 L 130.285 124.116 L 130.234 124.137 L 130.133 124.167 L 130.027 124.179 L 129.973 124.179 L 129.895 124.171 L 129.841 124.160 L 129.740 124.128 L 129.646 124.079 L 129.600 124.049 L 129.540 123.999 L 129.501 123.960 L 129.451 123.900 L 129.420 123.854 L 129.372 123.760 L 129.333 123.633 L 129.321 123.527 L 129.320 118.782 L 129.326 118.779 L 129.320 118.782 L 128.718 118.180 L 128.721 118.174 L 128.718 118.180 L 125.579 118.180 L 125.573 118.170 L 125.579 118.180 L 125.536 118.252 L 125.356 118.451 L 125.140 118.608 L 124.923 118.707 L 124.843 118.730 L 124.157 118.730 L 124.077 118.707 L 123.860 118.608 L 123.666 118.470 L 123.623 118.430 L 123.464 118.252 L 123.421 118.180 L 123.427 118.170 L 123.421 118.180 L 121.500 118.180 L 121.367 118.167 L 121.266 118.137 L 121.215 118.116 L 121.146 118.079 L 121.100 118.049 L 121.019 117.981 L 120.501 117.460 L 120.451 117.400 L 120.420 117.354 L 120.372 117.260 L 120.333 117.133 L 120.320 117.000 L 120.320 115.640 L 120.343 115.617 L 120.320 115.640 L 117.959 115.640 L 117.953 115.630 L 117.959 115.640 L 117.916 115.712 L 117.736 115.911 L 117.520 116.068 L 117.303 116.167 L 117.223 116.190 L 116.537 116.190 L 116.457 116.167 L 116.266 116.082 L 116.215 116.053 L 116.024 115.911 L 115.844 115.712 L 115.724 115.507 L 115.700 115.453 L 115.628 115.226 L 115.600 114.960" fill="none" stroke="#000000" stroke-width="0.2"/>
  <path d="M 111.190 117.500 L 111.214 117.267 L 111.282 117.056 L 111.293 117.033 L 111.412 116.832 L 111.561 116.668 L 111.750 116.530 L 111.964 116.435 L 112.180 116.388 L 112.205 116.385 L 112.439 116.388 L 112.656 116.435 L 112.870 116.530 L 113.068 116.677 L 113.216 116.842 L 113.296 116.980 L 115.894 116.980 L 115.974 116.842 L 116.122 116.677 L 116.320 116.530 L 116.534 116.435 L 116.751 116.388 L 116.775 116.385 L 117.009 116.388 L 117.226 116.435 L 117.440 116.530 L 117.629 116.668 L 117.778 116.832 L 117.793 116.852 L 117.908 117.056 L 117.976 117.267 L 118.000 117.500 L 117.976 117.733 L 117.908 117.944 L 117.793 118.148 L 117.778 118.168 L 117.629 118.332 L 117.440 118.470 L 117.226 118.565 L 117.009 118.612 L 116.985 118.615 L 116.751 118.612 L 116.534 118.565 L 116.320 118.470 L 116.122 118.323 L 115.974 118.158 L 115.894 118.020 L 113.296 118.020 L 113.216 118.158 L 113.068 118.323 L 112.870 118.470 L 112.656 118.565 L 112.439 118.612 L 112.415 118.615 L 112.180 118.612 L 111.964 118.565 L 111.761 118.476 L 111.570 118.340 L 111.552 118.323 L 111.404 118.158 L 111.287 117.956 L 111.214 117.733 L 111.190 117.500 L 111.110 117.500 L 111.136 117.250 L 111.206 117.031 L 111.223 116.993 L 111.328 116.812 L 111.352 116.778 L 111.507 116.608 L 111.710 116.461 L 111.939 116.359 L 112.164 116.310 L 112.205 116.305 L 112.415 116.305 L 112.456 116.310 L 112.681 116.359 L 112.910 116.461 L 113.097 116.595 L 113.128 116.623 L 113.281 116.795 L 113.342 116.900 L 113.336 116.911 L 113.342 116.900 L 115.848 116.900 L 115.854 116.911 L 115.848 116.900 L 115.909 116.795 L 116.062 116.623 L 116.093 116.595 L 116.280 116.461 L 116.490 116.366 L 116.529 116.353 L 116.755 116.307 L 116.985 116.305 L 117.026 116.310 L 117.251 116.359 L 117.480 116.461 L 117.683 116.608 L 117.851 116.795 L 117.976 117.012 L 118.054 117.250 L 118.080 117.500 L 118.054 117.749 L 117.976 117.988 L 117.862 118.188 L 117.838 118.222 L 117.683 118.392 L 117.480 118.539 L 117.270 118.634 L 117.231 118.647 L 117.005 118.693 L 116.755 118.693 L 116.529 118.647 L 116.490 118.634 L 116.280 118.539 L 116.093 118.405 L 116.062 118.377 L 115.909 118.205 L 115.848 118.100 L 115.854 118.089 L 115.848 118.100 L 113.342 118.100 L 113.336 118.089 L 113.342 118.100 L 113.281 118.205 L 113.113 118.392 L 112.910 118.539 L 112.700 118.634 L 112.661 118.647 L 112.456 118.690 L 112.415 118.695 L 112.185 118.693 L 111.959 118.647 L 111.920 118.634 L 111.729 118.549 L 111.692 118.528 L 111.507 118.392 L 111.339 118.205 L 111.214 117.988 L 111.142 117.770 L 111.133 117.729 L 111.110 117.500 L 111.030 117.500 L 111.032 117.471 L 111.058 117.234 L 111.141 116.979 L 111.274 116.748 L 111.433 116.570 L 111.476 116.530 L 111.670 116.392 L 111.887 116.293 L 111.943 116.275 L 112.147 116.232 L 112.205 116.225 L 112.444 116.227 L 112.677 116.275 L 112.733 116.293 L 112.950 116.392 L 113.144 116.530 L 113.187 116.570 L 113.346 116.748 L 113.389 116.820 L 113.383 116.830 L 113.389 116.820 L 115.801 116.820 L 115.807 116.830 L 115.801 116.820 L 115.844 116.748 L 116.024 116.549 L 116.240 116.392 L 116.457 116.293 L 116.537 116.270 L 117.223 116.270 L 117.247 116.275 L 117.303 116.293 L 117.494 116.378 L 117.545 116.407 L 117.736 116.549 L 117.916 116.748 L 118.036 116.953 L 118.060 117.007 L 118.132 117.234 L 118.160 117.500 L 118.132 117.766 L 118.060 117.993 L 118.036 118.047 L 117.916 118.252 L 117.736 118.451 L 117.545 118.593 L 117.494 118.622 L 117.303 118.707 L 117.247 118.725 L 117.223 118.730 L 116.537 118.730 L 116.457 118.707 L 116.240 118.608 L 116.024 118.451 L 115.844 118.252 L 115.801 118.180 L 115.807 118.170 L 115.801 118.180 L 113.389 118.180 L 113.383 118.170 L 113.389 118.180 L 113.346 118.252 L 113.187 118.430 L 113.144 118.470 L 112.950 118.608 L 112.706 118.717 L 112.473 118.768 L 112.415 118.774 L 112.176 118.773 L 111.914 118.717 L 111.670 118.608 L 111.454 118.451 L 111.274 118.252 L 111.141 118.021 L 111.058 117.766 L 111.030 117.500" fill="none" stroke="#000000" stroke-width="0.2"/>
  <path d="M 103.570 117.500 L 103.594 117.267 L 103.662 117.056 L 103.673 117.033 L 103.792 116.832 L 103.941 116.668 L 104.130 116.530 L 104.344 116.435 L 104.573 116.386 L 104.807 116.386 L 105.036 116.435 L 105.250 116.530 L 105.430 116.660 L 105.588 116.832 L 105.603 116.852 L 105.713 117.044 L 105.786 117.267 L 105.810 117.500 L 105.787 117.720 L 105.713 117.956 L 105.596 118.158 L 105.448 118.323 L 105.261 118.463 L 105.210 118.488 L 105.210 124.440 L 109.554 124.440 L 109.634 124.302 L 109.782 124.137 L 109.980 123.990 L 110.206 123.892 L 110.423 123.846 L 110.657 123.846 L 110.886 123.895 L 111.089 123.984 L 111.280 124.120 L 111.298 124.137 L 111.446 124.302 L 111.563 124.504 L 111.636 124.727 L 111.659 124.947 L 111.636 125.193 L 111.568 125.404 L 111.453 125.608 L 111.438 125.628 L 111.289 125.792 L 111.100 125.930 L 110.886 126.025 L 110.657 126.074 L 110.423 126.074 L 110.206 126.028 L 109.980 125.930 L 109.782 125.783 L 109.634 125.618 L 109.554 125.480 L 105.198 125.480 L 105.090 125.512 L 104.988 125.519 L 104.887 125.507 L 104.790 125.475 L 104.702 125.425 L 104.632 125.368 L 104.322 125.058 L 104.264 124.988 L 104.223 124.918 L 104.193 124.842 L 104.175 124.762 L 104.170 124.699 L 104.170 118.488 L 104.119 118.463 L 103.941 118.332 L 103.784 118.158 L 103.667 117.956 L 103.598 117.745 L 103.570 117.500 L 103.490 117.500 L 103.516 117.250 L 103.594 117.012 L 103.719 116.795 L 103.872 116.623 L 103.903 116.595 L 104.072 116.472 L 104.109 116.451 L 104.319 116.359 L 104.565 116.307 L 104.815 116.307 L 105.061 116.359 L 105.290 116.461 L 105.493 116.608 L 105.661 116.795 L 105.786 117.012 L 105.864 117.250 L 105.889 117.479 L 105.889 117.521 L 105.864 117.749 L 105.794 117.969 L 105.777 118.007 L 105.661 118.205 L 105.508 118.377 L 105.477 118.405 L 105.308 118.528 L 105.290 118.539 L 105.281 118.535 L 105.290 118.539 L 105.290 124.360 L 105.267 124.383 L 105.290 124.360 L 109.508 124.360 L 109.514 124.371 L 109.508 124.360 L 109.569 124.255 L 109.722 124.083 L 109.753 124.055 L 109.940 123.921 L 110.150 123.826 L 110.189 123.813 L 110.415 123.767 L 110.665 123.767 L 110.911 123.819 L 111.140 123.921 L 111.343 124.068 L 111.498 124.238 L 111.522 124.272 L 111.627 124.453 L 111.644 124.491 L 111.714 124.710 L 111.740 124.960 L 111.714 125.209 L 111.636 125.448 L 111.511 125.665 L 111.358 125.837 L 111.327 125.865 L 111.158 125.988 L 111.121 126.009 L 110.911 126.101 L 110.686 126.150 L 110.645 126.154 L 110.415 126.153 L 110.189 126.107 L 110.150 126.094 L 109.940 125.999 L 109.753 125.865 L 109.722 125.837 L 109.569 125.665 L 109.508 125.560 L 109.514 125.549 L 109.508 125.560 L 105.213 125.559 L 105.136 125.584 L 105.097 125.591 L 105.019 125.599 L 104.980 125.599 L 104.902 125.591 L 104.864 125.584 L 104.789 125.561 L 104.753 125.546 L 104.683 125.509 L 104.651 125.487 L 104.576 125.424 L 104.266 125.114 L 104.196 125.030 L 104.149 124.948 L 104.125 124.890 L 104.100 124.799 L 104.090 124.690 L 104.090 118.539 L 104.099 118.535 L 104.090 118.539 L 104.072 118.528 L 103.887 118.392 L 103.732 118.222 L 103.708 118.188 L 103.594 117.988 L 103.522 117.770 L 103.513 117.729 L 103.490 117.500 L 103.410 117.500 L 103.412 117.471 L 103.438 117.234 L 103.521 116.979 L 103.654 116.748 L 103.834 116.549 L 104.050 116.392 L 104.294 116.283 L 104.556 116.227 L 104.824 116.227 L 105.086 116.283 L 105.304 116.378 L 105.355 116.407 L 105.524 116.530 L 105.567 116.570 L 105.725 116.748 L 105.859 116.979 L 105.942 117.234 L 105.968 117.471 L 105.968 117.529 L 105.942 117.766 L 105.870 117.993 L 105.846 118.047 L 105.725 118.252 L 105.567 118.430 L 105.524 118.470 L 105.370 118.581 L 105.361 118.577 L 105.370 118.581 L 105.370 124.280 L 105.347 124.303 L 105.370 124.280 L 109.461 124.280 L 109.467 124.290 L 109.461 124.280 L 109.504 124.208 L 109.684 124.009 L 109.900 123.851 L 110.117 123.753 L 110.173 123.735 L 110.377 123.692 L 110.435 123.686 L 110.674 123.687 L 110.907 123.735 L 110.963 123.753 L 111.180 123.851 L 111.374 123.990 L 111.417 124.029 L 111.575 124.208 L 111.696 124.413 L 111.720 124.467 L 111.792 124.694 L 111.820 124.960 L 111.797 125.197 L 111.784 125.254 L 111.709 125.481 L 111.591 125.688 L 111.557 125.735 L 111.396 125.911 L 111.180 126.068 L 111.019 126.142 L 110.906 126.163 L 110.699 126.184 L 110.437 126.187 L 110.174 126.163 L 110.061 126.142 L 109.900 126.068 L 109.706 125.930 L 109.663 125.890 L 109.504 125.712 L 109.461 125.640 L 109.467 125.630 L 109.461 125.640 L 105.226 125.640 L 105.159 125.660 L 105.105 125.671 L 105.027 125.679 L 104.972 125.679 L 104.894 125.671 L 104.841 125.660 L 104.766 125.637 L 104.715 125.616 L 104.646 125.579 L 104.600 125.549 L 104.519 125.481 L 104.209 125.171 L 104.153 125.107 L 104.128 125.071 L 104.095 125.018 L 104.051 124.921 L 104.023 124.818 L 104.016 124.775 L 104.010 124.690 L 104.010 118.581 L 104.019 118.577 L 104.010 118.581 L 103.856 118.470 L 103.813 118.430 L 103.654 118.252 L 103.534 118.047 L 103.510 117.993 L 103.438 117.766 L 103.410 117.500" fill="none" stroke="#000000" stroke-width="0.2"/>
  <path d="M 101.320 127.500 L 101.320 112.500 L 101.333 112.367 L 101.372 112.240 L 101.421 112.146 L 101.451 112.100 L 101.519 112.019 L 101.600 111.951 L 101.646 111.920 L 101.740 111.872 L 101.867 111.833 L 102.000 111.820 L 102.762 111.821 L 102.791 111.805 L 102.891 111.767 L 102.995 111.746 L 103.080 111.740 L 115.600 111.740 L 115.619 111.761 L 115.600 111.740 L 115.602 111.703 L 115.613 111.609 L 115.641 111.519 L 115.665 111.465 L 115.713 111.384 L 115.775 111.313 L 115.819 111.274 L 115.896 111.219 L 116.009 111.169 L 116.102 111.148 L 116.158 111.142 L 116.200 111.142 L 116.220 111.158 L 116.200 111.142 L 116.200 101.813 L 116.213 101.805 L 116.200 101.813 L 115.485 101.493 L 113.947 100.378 L 113.903 100.338 L 112.633 98.925 L 111.681 97.280 L 111.657 97.227 L 111.072 95.419 L 110.870 93.500 L 111.072 91.581 L 111.657 89.773 L 111.681 89.720 L 112.633 88.075 L 113.924 86.641 L 115.485 85.507 L 117.248 84.722 L 119.135 84.321 L 121.065 84.321 L 122.952 84.722 L 124.715 85.507 L 126.276 86.641 L 127.567 88.075 L 128.532 89.746 L 129.121 91.553 L 129.133 91.610 L 129.330 93.500 L 129.133 95.390 L 129.121 95.447 L 128.542 97.227 L 128.519 97.280 L 127.567 98.925 L 126.297 100.338 L 126.253 100.378 L 124.740 101.477 L 124.689 101.507 L 122.952 102.278 L 121.065 102.679 L 119.135 102.679 L 117.560 102.346 L 117.530 102.310 L 117.560 102.346 L 117.560 111.140 L 117.541 111.157 L 117.560 111.140 L 117.615 111.142 L 117.658 111.148 L 117.751 111.169 L 117.864 111.219 L 117.964 111.292 L 118.047 111.384 L 118.109 111.492 L 118.147 111.609 L 118.160 111.732 L 118.160 113.108 L 118.152 113.202 L 118.139 113.259 L 118.109 113.348 L 118.047 113.456 L 117.964 113.548 L 117.864 113.621 L 117.751 113.671 L 117.658 113.692 L 117.582 113.700 L 117.376 113.700 L 117.255 113.678 L 116.985 113.653 L 116.716 113.656 L 116.503 113.678 L 116.384 113.700 L 116.145 113.698 L 116.038 113.679 L 115.982 113.660 L 115.922 113.634 L 115.872 113.605 L 115.796 113.548 L 115.713 113.456 L 115.651 113.348 L 115.613 113.231 L 115.600 113.100 L 115.619 113.079 L 115.600 113.100 L 103.318 113.098 L 103.289 113.115 L 103.189 113.153 L 103.085 113.174 L 103.000 113.180 L 102.680 113.180 L 102.657 113.157 L 102.680 113.180 L 102.680 126.820 L 102.657 126.843 L 102.680 126.820 L 109.260 126.820 L 109.283 126.843 L 109.260 126.820 L 109.260 126.500 L 109.265 126.445 L 109.281 126.393 L 109.307 126.344 L 109.342 126.302 L 109.384 126.267 L 109.433 126.241 L 109.485 126.225 L 109.540 126.220 L 110.044 126.220 L 110.165 126.242 L 110.435 126.267 L 110.704 126.264 L 110.915 126.242 L 111.036 126.220 L 111.540 126.220 L 111.595 126.225 L 111.647 126.241 L 111.696 126.267 L 111.738 126.302 L 111.773 126.344 L 111.799 126.393 L 111.815 126.445 L 111.820 126.500 L 111.820 126.820 L 111.797 126.843 L 111.820 126.820 L 115.921 126.820 L 115.927 126.830 L 115.921 126.820 L 115.964 126.748 L 116.144 126.549 L 116.360 126.391 L 116.577 126.293 L 116.633 126.275 L 116.837 126.232 L 116.895 126.225 L 117.134 126.227 L 117.367 126.275 L 117.423 126.293 L 117.614 126.378 L 117.665 126.407 L 117.856 126.549 L 118.035 126.748 L 118.156 126.953 L 118.180 127.007 L 118.252 127.234 L 118.280 127.500 L 118.252 127.766 L 118.180 127.993 L 118.156 128.047 L 118.035 128.252 L 117.877 128.430 L 117.834 128.470 L 117.680 128.581 L 117.671 128.577 L 117.680 128.581 L 117.680 133.820 L 117.657 133.843 L 117.680 133.820 L 130.570 133.820 L 130.593 133.843 L 130.570 133.820 L 130.570 128.746 L 130.579 128.742 L 130.570 128.746 L 130.394 128.616 L 130.233 128.440 L 130.199 128.393 L 130.081 128.186 L 130.006 127.959 L 129.993 127.902 L 129.970 127.665 L 129.993 127.428 L 130.006 127.371 L 130.081 127.144 L 130.214 126.913 L 130.394 126.714 L 130.610 126.557 L 130.854 126.448 L 131.116 126.392 L 131.384 126.392 L 131.617 126.440 L 131.673 126.458 L 131.864 126.543 L 131.915 126.573 L 132.106 126.714 L 132.286 126.913 L 132.406 127.118 L 132.430 127.172 L 132.502 127.399 L 132.530 127.665 L 132.502 127.931 L 132.430 128.158 L 132.406 128.212 L 132.286 128.417 L 132.127 128.596 L 132.084 128.635 L 131.930 128.746 L 131.921 128.742 L 131.930 128.746 L 131.930 134.250 L 131.924 134.335 L 131.903 134.439 L 131.889 134.481 L 131.845 134.578 L 131.786 134.667 L 131.731 134.731 L 131.481 134.981 L 131.378 135.065 L 131.285 135.116 L 131.234 135.137 L 131.133 135.167 L 131.000 135.180 L 117.000 135.180 L 116.867 135.167 L 116.766 135.137 L 116.715 135.116 L 116.646 135.079 L 116.600 135.049 L 116.519 134.981 L 116.451 134.900 L 116.420 134.854 L 116.384 134.785 L 116.363 134.734 L 116.340 134.659 L 116.329 134.605 L 116.320 134.500 L 116.320 128.581 L 116.328 128.577 L 116.320 128.581 L 116.166 128.470 L 116.123 128.430 L 115.964 128.252 L 115.921 128.180 L 115.927 128.169 L 115.921 128.180 L 111.820 128.180 L 111.797 128.157 L 111.820 128.180 L 111.820 128.500 L 111.815 128.555 L 111.799 128.607 L 111.773 128.656 L 111.738 128.698 L 111.696 128.733 L 111.647 128.759 L 111.595 128.775 L 111.540 128.780 L 109.540 128.780 L 109.485 128.775 L 109.433 128.759 L 109.384 128.733 L 109.342 128.698 L 109.307 128.656 L 109.281 128.607 L 109.265 128.555 L 109.260 128.500 L 109.260 128.180 L 109.283 128.157 L 109.260 128.180 L 101.973 128.179 L 101.867 128.167 L 101.740 128.128 L 101.646 128.079 L 101.600 128.049 L 101.540 127.999 L 101.501 127.960 L 101.451 127.900 L 101.421 127.854 L 101.372 127.760 L 101.333 127.633 L 101.320 127.500 L 101.400 127.500 L 101.400 112.500 L 101.412 112.383 L 101.446 112.270 L 101.491 112.183 L 101.513 112.151 L 101.576 112.076 L 101.651 112.013 L 101.683 111.991 L 101.770 111.946 L 101.883 111.912 L 102.000 111.900 L 102.783 111.902 L 102.822 111.879 L 102.910 111.845 L 103.002 111.826 L 103.080 111.820 L 115.680 111.820 L 115.701 111.842 L 115.680 111.820 L 115.681 111.712 L 115.688 111.647 L 115.697 111.606 L 115.724 111.524 L 115.766 111.449 L 115.791 111.415 L 115.850 111.352 L 115.936 111.289 L 116.015 111.253 L 116.054 111.240 L 116.138 111.223 L 116.280 111.221 L 116.303 111.244 L 116.280 111.221 L 116.280 101.761 L 116.293 101.753 L 116.280 101.761 L 115.525 101.424 L 113.977 100.300 L 112.697 98.878 L 111.751 97.240 L 111.734 97.202 L 111.150 95.402 L 110.950 93.500 L 111.150 91.598 L 111.741 89.778 L 112.697 88.122 L 113.963 86.715 L 113.994 86.687 L 115.507 85.587 L 115.544 85.566 L 117.272 84.798 L 119.144 84.400 L 121.056 84.400 L 122.907 84.792 L 122.947 84.805 L 124.675 85.576 L 126.223 86.700 L 127.502 88.122 L 128.459 89.778 L 129.050 91.598 L 129.250 93.500 L 129.050 95.402 L 128.459 97.222 L 127.502 98.878 L 126.237 100.285 L 126.206 100.313 L 124.693 101.413 L 124.656 101.434 L 122.927 102.202 L 121.056 102.600 L 119.144 102.600 L 117.480 102.247 L 117.450 102.211 L 117.480 102.247 L 117.480 111.220 L 117.457 111.243 L 117.480 111.220 L 117.611 111.222 L 117.706 111.240 L 117.745 111.253 L 117.824 111.289 L 117.894 111.338 L 117.925 111.366 L 117.982 111.431 L 118.036 111.524 L 118.069 111.626 L 118.080 111.732 L 118.080 113.108 L 118.072 113.193 L 118.063 113.234 L 118.036 113.316 L 117.982 113.409 L 117.910 113.488 L 117.824 113.551 L 117.726 113.595 L 117.642 113.614 L 117.578 113.620 L 116.192 113.620 L 116.118 113.614 L 116.054 113.600 L 116.015 113.587 L 115.955 113.561 L 115.919 113.540 L 115.850 113.488 L 115.791 113.425 L 115.766 113.391 L 115.724 113.316 L 115.691 113.214 L 115.681 113.128 L 115.680 113.020 L 115.701 112.998 L 115.680 113.020 L 103.297 113.018 L 103.258 113.041 L 103.200 113.065 L 103.078 113.094 L 103.000 113.100 L 102.600 113.100 L 102.577 113.077 L 102.600 113.100 L 102.600 126.900 L 102.577 126.923 L 102.600 126.900 L 109.340 126.900 L 109.363 126.923 L 109.340 126.900 L 109.340 126.500 L 109.344 126.461 L 109.355 126.423 L 109.374 126.389 L 109.399 126.359 L 109.429 126.334 L 109.463 126.315 L 109.501 126.304 L 109.540 126.300 L 111.540 126.300 L 111.579 126.304 L 111.617 126.315 L 111.651 126.334 L 111.681 126.359 L 111.706 126.389 L 111.725 126.423 L 111.736 126.461 L 111.740 126.500 L 111.740 126.900 L 111.717 126.923 L 111.740 126.900 L 115.968 126.900 L 115.974 126.911 L 115.968 126.900 L 116.029 126.795 L 116.197 126.608 L 116.400 126.461 L 116.610 126.366 L 116.649 126.353 L 116.854 126.310 L 116.895 126.305 L 117.125 126.307 L 117.351 126.353 L 117.390 126.366 L 117.581 126.451 L 117.618 126.472 L 117.803 126.608 L 117.971 126.795 L 118.087 126.993 L 118.104 127.031 L 118.174 127.250 L 118.200 127.500 L 118.177 127.729 L 118.168 127.770 L 118.096 127.988 L 117.982 128.188 L 117.958 128.222 L 117.803 128.392 L 117.618 128.528 L 117.600 128.539 L 117.591 128.535 L 117.600 128.539 L 117.600 133.900 L 117.577 133.923 L 117.600 133.900 L 130.650 133.900 L 130.673 133.923 L 130.650 133.900 L 130.650 128.704 L 130.659 128.700 L 130.650 128.704 L 130.632 128.693 L 130.463 128.570 L 130.432 128.542 L 130.279 128.370 L 130.154 128.153 L 130.082 127.935 L 130.073 127.894 L 130.050 127.665 L 130.073 127.436 L 130.082 127.395 L 130.154 127.177 L 130.279 126.960 L 130.447 126.773 L 130.650 126.626 L 130.879 126.524 L 131.125 126.472 L 131.375 126.472 L 131.601 126.518 L 131.640 126.531 L 131.831 126.616 L 131.868 126.637 L 132.053 126.773 L 132.221 126.960 L 132.337 127.158 L 132.354 127.197 L 132.424 127.416 L 132.450 127.665 L 132.427 127.894 L 132.418 127.935 L 132.346 128.153 L 132.232 128.353 L 132.208 128.387 L 132.053 128.557 L 131.868 128.693 L 131.850 128.704 L 131.841 128.700 L 131.850 128.704 L 131.850 134.250 L 131.839 134.359 L 131.825 134.420 L 131.791 134.508 L 131.744 134.590 L 131.685 134.663 L 131.424 134.924 L 131.349 134.987 L 131.316 135.009 L 131.247 135.046 L 131.211 135.061 L 131.117 135.088 L 131.000 135.100 L 117.000 135.100 L 116.883 135.088 L 116.770 135.054 L 116.683 135.009 L 116.651 134.987 L 116.576 134.924 L 116.513 134.849 L 116.491 134.816 L 116.454 134.747 L 116.439 134.711 L 116.416 134.636 L 116.409 134.598 L 116.400 134.500 L 116.400 128.539 L 116.408 128.535 L 116.400 128.539 L 116.382 128.528 L 116.213 128.405 L 116.182 128.377 L 116.029 128.205 L 115.968 128.100 L 115.974 128.089 L 115.968 128.100 L 111.740 128.100 L 111.717 128.077 L 111.740 128.100 L 111.740 128.500 L 111.736 128.539 L 111.725 128.577 L 111.706 128.611 L 111.681 128.641 L 111.651 128.666 L 111.617 128.685 L 111.579 128.696 L 111.540 128.700 L 109.540 128.700 L 109.501 128.696 L 109.463 128.685 L 109.429 128.666 L 109.399 128.641 L 109.374 128.611 L 109.355 128.577 L 109.344 128.539 L 109.340 128.500 L 109.340 128.100 L 109.363 128.077 L 109.340 128.100 L 101.980 128.099 L 101.883 128.088 L 101.770 128.054 L 101.683 128.009 L 101.651 127.987 L 101.590 127.937 L 101.563 127.910 L 101.513 127.849 L 101.491 127.816 L 101.446 127.730 L 101.412 127.617 L 101.400 127.500 L 101.480 127.500 L 101.490 127.601 L 101.520 127.699 L 101.575 127.798 L 101.632 127.868 L 101.702 127.925 L 101.801 127.980 L 101.899 128.010 L 101.988 128.019 L 109.420 128.020 L 109.422 128.523 L 109.440 128.567 L 109.473 128.600 L 109.517 128.618 L 109.540 128.620 L 111.563 128.618 L 111.607 128.600 L 111.625 128.585 L 111.651 128.546 L 111.658 128.523 L 111.660 128.020 L 116.014 128.020 L 116.094 128.158 L 116.242 128.323 L 116.429 128.463 L 116.480 128.488 L 116.481 134.512 L 116.490 134.601 L 116.520 134.699 L 116.562 134.779 L 116.624 134.859 L 116.721 134.938 L 116.801 134.980 L 116.899 135.010 L 117.000 135.020 L 131.000 135.020 L 131.101 135.010 L 131.188 134.984 L 131.298 134.925 L 131.368 134.868 L 131.618 134.618 L 131.676 134.548 L 131.717 134.478 L 131.741 134.420 L 131.762 134.341 L 131.770 134.250 L 131.770 128.654 L 131.821 128.628 L 131.999 128.497 L 132.163 128.313 L 132.273 128.121 L 132.342 127.910 L 132.370 127.665 L 132.346 127.432 L 132.278 127.221 L 132.156 127.007 L 131.999 126.833 L 131.821 126.702 L 131.799 126.689 L 131.584 126.597 L 131.367 126.551 L 131.133 126.551 L 130.904 126.600 L 130.690 126.695 L 130.501 126.833 L 130.344 127.007 L 130.227 127.210 L 130.153 127.445 L 130.130 127.665 L 130.153 127.885 L 130.227 128.121 L 130.344 128.323 L 130.492 128.488 L 130.679 128.628 L 130.730 128.654 L 130.730 133.980 L 117.520 133.980 L 117.520 128.488 L 117.571 128.463 L 117.749 128.332 L 117.913 128.148 L 118.023 127.956 L 118.092 127.745 L 118.120 127.500 L 118.092 127.255 L 118.023 127.044 L 117.906 126.842 L 117.749 126.668 L 117.571 126.537 L 117.358 126.439 L 117.334 126.432 L 117.117 126.386 L 116.895 126.385 L 116.871 126.388 L 116.642 126.439 L 116.440 126.530 L 116.251 126.668 L 116.094 126.842 L 116.014 126.980 L 111.660 126.980 L 111.658 126.477 L 111.640 126.433 L 111.607 126.400 L 111.563 126.382 L 111.540 126.380 L 109.517 126.382 L 109.473 126.400 L 109.455 126.415 L 109.429 126.454 L 109.422 126.477 L 109.420 126.980 L 102.520 126.980 L 102.520 113.020 L 103.000 113.020 L 103.072 113.015 L 103.169 112.991 L 103.228 112.967 L 103.274 112.940 L 115.760 112.940 L 115.760 113.108 L 115.767 113.185 L 115.773 113.210 L 115.803 113.295 L 115.843 113.362 L 115.903 113.429 L 115.976 113.482 L 116.071 113.522 L 116.135 113.536 L 116.192 113.540 L 117.567 113.540 L 117.625 113.536 L 117.701 113.519 L 117.784 113.482 L 117.857 113.429 L 117.917 113.362 L 117.963 113.283 L 117.993 113.185 L 118.000 113.108 L 118.000 111.732 L 117.991 111.643 L 117.963 111.557 L 117.917 111.478 L 117.857 111.411 L 117.784 111.358 L 117.701 111.321 L 117.625 111.304 L 117.567 111.300 L 117.400 111.300 L 117.400 102.149 L 119.152 102.520 L 121.048 102.520 L 122.903 102.126 L 124.624 101.361 L 124.646 101.348 L 126.159 100.248 L 126.178 100.231 L 127.438 98.831 L 128.386 97.189 L 128.972 95.386 L 129.170 93.500 L 128.972 91.614 L 128.386 89.811 L 127.438 88.169 L 126.169 86.760 L 124.635 85.645 L 122.914 84.878 L 122.891 84.871 L 121.048 84.480 L 119.152 84.480 L 117.297 84.874 L 115.576 85.639 L 115.554 85.652 L 114.041 86.752 L 114.022 86.769 L 112.762 88.169 L 111.814 89.811 L 111.228 91.614 L 111.030 93.500 L 111.228 95.386 L 111.810 97.177 L 111.820 97.200 L 112.762 98.831 L 114.031 100.240 L 115.565 101.355 L 116.360 101.710 L 116.360 111.301 L 116.147 111.302 L 116.071 111.318 L 115.976 111.358 L 115.903 111.411 L 115.836 111.489 L 115.797 111.557 L 115.773 111.630 L 115.760 111.732 L 115.760 111.900 L 103.080 111.900 L 103.008 111.905 L 102.928 111.923 L 102.852 111.953 L 102.806 111.980 L 102.000 111.980 L 101.899 111.990 L 101.801 112.020 L 101.721 112.062 L 101.632 112.132 L 101.575 112.202 L 101.520 112.301 L 101.490 112.399 L 101.480 112.500 L 101.480 127.500" fill="none" stroke="#000000" stroke-width="0.2"/>
</svg>
