<?xml version="1.0" encoding="UTF-8"?>
<svg xmlns="http://www.w3.org/2000/svg" width="46.31mm" height="29.67mm" viewBox="99.69 103.00 46.31 29.67">
  <circle cx="116.880" cy="112.420" r="0.400" fill="none" stroke="#000000" stroke-width="0.1"/>
  <circle cx="116.880" cy="114.960" r="0.400" fill="none" stroke="#000000" stroke-width="0.1"/>
  <circle cx="116.880" cy="117.500" r="0.400" fill="none" stroke="#000000" stroke-width="0.1"/>
  <circle cx="116.880" cy="120.040" r="0.400" fill="none" stroke="#000000" stroke-width="0.1"/>
  <circle cx="112.310" cy="117.500" r="0.400" fill="none" stroke="#000000" stroke-width="0.1"/>
  <circle cx="104.690" cy="117.500" r="0.400" fill="none" stroke="#000000" stroke-width="0.1"/>
  <circle cx="117.000" cy="127.500" r="0.400" fill="none" stroke="#000000" stroke-width="0.1"/>
  <circle cx="122.000" cy="127.500" r="0.400" fill="none" stroke="#000000" stroke-width="0.1"/>
  <circle cx="124.500" cy="120.040" r="0.400" fill="none" stroke="#000000" stroke-width="0.1"/>
  <circle cx="124.500" cy="117.500" r="0.400" fill="none" stroke="#000000" stroke-width="0.1"/>
  <circle cx="124.500" cy="114.960" r="0.400" fill="none" stroke="#000000" stroke-width="0.1"/>
  <circle cx="124.500" cy="112.420" r="0.400" fill="none" stroke="#000000" stroke-width="0.1"/>
  <circle cx="133.000" cy="108.000" r="0.400" fill="none" stroke="#000000" stroke-width="0.1"/>
  <circle cx="133.000" cy="115.620" r="0.400" fill="none" stroke="#000000" stroke-width="0.1"/>
  <circle cx="133.750" cy="123.335" r="0.400" fill="none" stroke="#000000" stroke-width="0.1"/>
  <circle cx="131.250" cy="127.665" r="0.400" fill="none" stroke="#000000" stroke-width="0.1"/>
  <circle cx="141.000" cy="122.620" r="0.400" fill="none" stroke="#000000" stroke-width="0.1"/>
  <circle cx="141.000" cy="115.000" r="0.400" fill="none" stroke="#000000" stroke-width="0.1"/>
  <circle cx="110.540" cy="124.960" r="0.450" fill="none" stroke="#000000" stroke-width="0.1"/>
  <circle cx="110.540" cy="127.500" r="0.450" fill="none" stroke="#000000" stroke-width="0.1"/>
</svg>
