<?xml version="1.0" encoding="UTF-8"?>
<svg xmlns="http://www.w3.org/2000/svg" width="101.44mm" height="91.43mm" viewBox="69.32 61.09 101.44 91.43">
  <path d="M 74.318 91.163 L 74.320 91.139 L 74.550 88.348 L 74.552 88.323 L 75.039 85.692 L 75.777 83.158 L 76.763 80.732 L 77.927 78.532 L 79.305 76.455 L 80.889 74.517 L 82.583 72.811 L 84.448 71.259 L 86.475 69.876 L 88.549 68.729 L 90.751 67.766 L 93.068 67.003 L 95.412 66.472 L 97.763 66.169 L 100.180 66.092 L 100.518 66.100 L 101.144 66.129 L 101.760 66.174 L 102.386 66.234 L 102.710 66.272 L 103.656 66.402 L 104.582 66.558 L 105.492 66.742 L 106.345 66.945 L 107.182 67.172 L 108.003 67.426 L 108.769 67.692 L 109.533 67.987 L 110.257 68.296 L 110.953 68.623 L 111.622 68.967 L 112.266 69.327 L 112.871 69.695 L 113.464 70.083 L 114.043 70.493 L 114.576 70.898 L 115.106 71.331 L 115.607 71.771 L 116.531 72.666 L 117.352 73.570 L 118.108 74.512 L 118.785 75.467 L 119.388 76.426 L 119.921 77.381 L 120.030 77.599 L 120.139 77.381 L 120.672 76.426 L 121.275 75.467 L 121.938 74.531 L 122.708 73.570 L 123.529 72.666 L 124.473 71.753 L 125.490 70.894 L 126.602 70.079 L 127.813 69.317 L 129.127 68.614 L 130.547 67.979 L 132.078 67.419 L 133.697 66.950 L 135.485 66.557 L 137.346 66.273 L 139.886 66.097 L 142.340 66.177 L 144.805 66.504 L 147.219 67.071 L 149.567 67.869 L 151.862 68.908 L 154.017 70.149 L 156.049 71.598 L 157.940 73.246 L 159.671 75.087 L 161.223 77.111 L 162.579 79.312 L 163.719 81.680 L 164.625 84.207 L 165.278 86.886 L 165.281 86.908 L 165.657 89.683 L 165.660 89.706 L 165.755 92.619 L 165.541 95.738 L 165.004 98.933 L 164.124 102.236 L 162.886 105.639 L 161.270 109.134 L 159.259 112.713 L 156.836 116.369 L 153.983 120.094 L 150.681 123.881 L 146.914 127.721 L 145.821 128.720 L 143.754 130.610 L 142.662 131.608 L 137.922 135.522 L 132.633 139.491 L 126.833 143.462 L 120.463 147.460 L 120.395 147.494 L 120.322 147.514 L 120.246 147.521 L 120.171 147.513 L 120.098 147.491 L 120.030 147.455 L 119.962 147.491 L 119.889 147.513 L 119.814 147.521 L 119.738 147.514 L 119.665 147.494 L 119.597 147.460 L 113.417 143.587 L 107.774 139.739 L 102.610 135.892 L 97.965 132.097 L 96.912 131.148 L 94.832 129.274 L 93.779 128.325 L 90.050 124.596 L 86.746 120.898 L 83.897 117.293 L 81.441 113.733 L 79.377 110.242 L 77.675 106.799 L 76.359 103.498 L 75.364 100.225 L 74.709 97.082 L 74.369 94.085 L 74.318 91.163" fill="none" stroke="#000000" stroke-width="0.2"/>
</svg>
